Patient4_TMGait_0pt6_01_left_30_EMG.mot
version=1
nRows=36
nColumns=33
inDegrees=no
endheader
time	1LAddLong	2LGlutMax	3LGlutMed	4LIliopsoas	5LSemiMemb	6LBicFemLong	7LRecFem	8LVastMed	9LVastLat	10LGasMed	11LTibAnt	12lTibPost	13LPeroneusLong	14LSol	15LExtDigLong	16LFlexDigLong	17RAddLong	18RGlutMax	19RGlutMed	20RIliopsoas	21RSemiMemb	22RBicFemLong	23RRecFem	24RVastMed	25RVastLat	26RGasMed	27RTibAnt	28RTibPost	29RPeroneusLong	30RSol	31RExtDigLong	32RFlexDigLong
37.725	0.004578	0.17792	-0.007782	0.011444	0.004578	0.008392	-0.02655	0.009918	0.17166	-0.021057	0.006561	0.003967	-0.16968	-0.11429	-0.019989	0.081329	0.023651	0.15518	0.2417	-0.065918	-0.019836	0.064392	0.36453	-0.12192	-0.22995	-0.01358	0.075531	-0.003052	-2.0798	-0.050049	-0.019531	-0.007477
37.726	0.005341	0.13046	-0.026855	0.017395	0.001984	-0.004883	-0.014343	0.006409	0.23025	0.008545	0.026398	0.007019	-0.11612	-0.019684	-0.023193	-0.016022	0.010376	0.066376	0.41504	0.15762	-0.023499	0.077515	0.3392	-0.14725	-0.20554	-0.015106	0.31311	-0.005188	-2.0317	-0.028687	-0.017548	-0.005493
37.727	0.00412	0.19272	-0.037384	0.004272	-0.025787	0.018463	0.005493	0.005493	0.18387	0.020599	0.019836	0.003815	-0.096893	0.037231	-0.001526	-0.019531	-0.003052	0.051575	0.096283	0.36591	-0.024567	0.10651	0.23117	-0.20493	-0.2005	-0.024567	0.31281	0.007935	1.8275	0.12848	-0.014038	-0.011597
37.728	0.004425	0.2121	-0.023193	0.003204	-0.005798	0.019226	0.02655	-0.00473	0.067902	0.032043	0.020905	0.006714	0.038452	0.047913	0.007172	-0.032349	-0.000763	0.012054	-0.36209	0.30319	-0.011597	0.14694	0.056	-0.20096	-0.14084	-0.03006	0.39078	-0.003357	1.274	-0.012207	-0.018616	-0.010376
37.729	0.02182	0.21408	-0.041656	0.007019	-0.004578	0.019379	0.035248	0.012054	-0.077972	0.007324	0.014648	0.002441	0.10941	0.16419	0.022125	-0.036316	-0.009613	0.011139	-0.4689	0.083923	0.013733	0.12375	-0.2356	-0.19119	-0.018921	-0.011902	0.20584	0.002136	-0.8902	-0.20981	-0.018921	-0.010986
37.73	-0.014038	0.19592	-0.063324	0.009918	-0.012207	-0.006104	0.056458	0.011902	-0.15854	-0.013123	0.013428	0.003052	0.087585	0.13199	0.025177	-0.050659	0.012054	-0.057526	-0.31433	0.046997	0.020905	0.062103	-0.019989	-0.1059	-0.018311	-0.011444	-0.35202	-0.001068	0.67734	-0.12405	-0.020599	-0.006866
37.731	0.034943	0.15945	-0.032501	0.002136	0.04425	-0.048523	0.030975	0.00824	-0.097198	-0.056915	0.006866	0.009308	0.003204	-0.054321	0.000305	-0.052948	0.020599	-0.088654	-0.17319	0.037842	0.025787	-0.005798	0.30792	-0.01236	-0.036469	-0.001526	-0.65521	0.005798	0.83023	-0.13565	-0.020752	-0.000458
37.732	0.036316	0.20111	-0.016632	0.005493	0.059967	-0.041504	0.00351	-0.002747	0.003357	-0.074005	0.012512	0.005646	-0.1062	-0.12238	-0.019836	-0.040894	0.016785	-0.094757	-0.16434	0.03479	0.060577	-0.031433	0.49149	-0.030518	-0.14023	-0.000305	-0.83435	0	0.016937	-0.040894	-0.019531	-0.001068
37.733	-0.013733	0.16693	-0.03952	0.027618	0.049744	0.007172	-0.032654	0.002899	0.084534	-0.09491	0.019989	0.011597	-0.11108	-0.057068	-0.028534	-0.03006	-0.000153	-0.18723	-0.023956	-0.040131	0.06012	0.044861	0.56717	-0.055847	-0.1181	-0.006866	-0.36758	-0.003204	-1.0298	0.11383	-0.014496	-0.005951
37.734	0.028534	0.14496	-0.056458	0.027008	0.040283	0.033417	-0.070496	0.010529	0.11765	-0.13458	0.018768	0.005341	-0.094147	0.086975	-0.005188	-0.02594	0.007324	-0.23956	-0.35065	-0.076599	0.053406	0.074005	0.54962	-0.17914	-0.13687	-0.001831	0.23651	0.00351	-1.9218	-0.090027	-0.020142	-0.005341
37.735	0.014801	0.15564	-0.061646	0.022888	-0.012817	0.075378	-0.097809	0.006409	0.10941	-0.084229	0.018616	0.008392	0.032196	0.11246	-0.019379	-0.018616	0.00885	-0.1767	-0.1149	-0.18433	0.045166	0.066681	0.27069	-0.22171	-0.12375	-0.000305	-0.027161	-0.000153	-0.22766	-0.1767	-0.018616	-0.007172
37.736	-0.012207	0.13947	-0.043488	0.017853	-0.054321	0.083618	-0.13336	0.010071	0.062561	-0.011444	0.018311	0.004425	0.10757	0.10742	-0.014648	-0.016022	-0.01236	-0.16251	0.15396	-0.32074	0.047455	0.13001	-0.76645	-0.27573	-0.087128	0.013885	-0.56839	0.002899	4.09	-0.16464	-0.014191	-0.001984
37.737	-0.013885	0.14252	-0.026093	0.018158	-0.060425	0.080719	-0.17258	0.006256	0.12863	0.052643	0.014038	0.014191	0.03891	0.041504	-0.024567	-0.015869	-0.036316	-0.17716	0.30502	-0.31723	0.049744	0.12085	-1.6277	-0.20233	0.07309	0.000153	-0.60165	-0.000458	0.34882	-0.11948	-0.019379	-0.002594
37.738	-0.013428	0.12802	-0.041351	0.011749	-0.067596	0.068359	-0.22003	0.011749	0.18204	0.11307	0.014648	0.004272	0.019531	0.051575	-0.015259	-0.017242	0.002136	-0.19791	0.47195	-0.1973	0.017853	0.04837	-1.0388	-0.031433	0.15762	-0.00061	-0.45959	0.000763	-1.6325	-0.11856	-0.016479	0.000458
37.739	0.003815	0.11002	-0.10132	0.014191	-0.00946	0.020142	-0.22415	0.002441	0.24139	0.13504	0.009766	0.003357	0.009613	0.041046	-0.012817	-0.010986	0.011292	-0.17487	0.45944	-0.057068	0.004272	0.010376	-0.41473	-0.001526	0.17425	-0.017548	-0.22079	-0.002899	-1.4969	0.17075	-0.016022	0.002136
37.74	0.013123	0.10071	-0.14389	0.016022	0.046844	-0.022583	-0.2005	-0.001984	0.21133	0.10864	0.023193	0.002899	0.00885	0.024261	-0.019989	-0.011902	0.012512	-0.25299	0.13962	0.22125	0.00473	0.029144	0.13825	0.16663	0.10422	-0.001373	0.38788	-0.001678	-0.17502	0.094147	-0.012817	-0.002289
37.741	0.026398	0.12528	-0.15076	0.028076	0.071564	-0.024414	-0.15854	-0.010223	0.15457	0.038757	0.015564	0.005341	0.012817	-0.020599	-0.011597	-0.00412	0.004425	-0.1712	0.59448	0.26779	0.006256	0.020447	0.36636	0.25604	0.060577	0.004883	1.0132	0.000153	0.97763	-0.32059	-0.014343	-0.002136
37.742	0.03418	0.078278	-0.061798	0.020599	0.028992	-0.033722	-0.13565	0.001221	0.11215	-0.018616	0.008698	0.007477	-0.00473	-0.035553	-0.011749	-0.014496	0.021362	-0.21255	1.0832	0.067749	-0.00061	0.018158	0.56763	0.051575	0.067749	-0.003967	0.82489	-0.002441	-0.42221	-0.31448	-0.017853	-0.001831
37.743	0.021515	0.055237	0.080566	0.012054	0.044708	-0.020752	-0.099335	-0.006866	0.13428	-0.11917	0.016174	0.00824	-0.007629	0.023041	0.001526	-0.002136	0.02594	-0.3183	0.096893	0.061646	-0.005493	0.007172	0.54291	-0.069275	0.21408	0.003052	0.61859	-0.002594	0.047302	-0.19531	-0.020447	-0.005798
37.744	0.025177	0.05127	0.030975	0.010071	0.037689	0.022888	-0.041809	-0.003662	0.17914	-0.10941	0.017548	0.001984	-0.008698	0.026245	0.003815	0.00061	0.002289	-0.32013	-0.44083	0.054169	0.001373	-0.010376	0.32974	0.045776	0.28	-0.010834	0.62363	0.000305	-0.3801	-0.10223	-0.013885	-0.007935
37.745	0.019531	0.062866	0.032349	0.003815	0.037689	0.049133	-0.024872	-0.00351	0.19745	-0.077972	0.015106	-0.00412	0.009766	0.017853	-0.002899	0.000763	-0.009766	-0.25314	-0.21805	0.046234	0.007324	-0.003052	0.40085	0.12329	0.14191	0.003815	0.70267	0.001221	-0.3537	-0.068207	-0.010071	-0.006256
37.746	0.014191	0.058136	-0.001068	0.000153	0.045624	0.069885	0.010986	-0.002289	0.17364	-0.057068	0.008392	0.001526	0.019684	-0.036774	0.005188	-0.001373	0.000916	-0.17334	-0.30914	-0.004578	0.016479	0.005798	0.30304	-0.00946	0.098419	0.001526	0.19638	-0.002289	-0.26077	0.072632	-0.013275	-0.011597
37.747	0.008698	0.063934	-0.015717	-0.001526	0.034637	0.090027	0.027161	0.000153	0.13275	-0.055847	0.011139	0.001068	0.050201	0.010223	0.003967	0.000305	-0.003967	-0.26428	-0.6398	0.026855	0.021973	0.015259	-0.28854	-0.080109	0.16983	-0.010529	-0.18585	-0.003204	0.055695	0.23865	-0.018768	-0.01709
37.748	0.007782	0.077209	-0.029755	0.005798	0.015259	0.1149	0.024719	-0.00061	0.071106	-0.036316	0.028381	-0.005951	0.049591	0.001526	-0.003357	0.003204	-0.031281	-0.24124	-0.78919	-0.013123	0.027161	0.014954	-0.69015	0.042114	0.29251	-0.0177	-0.21545	-0.001831	0.21332	0.41397	-0.005951	-0.015411
37.749	0.006256	0.11246	-0.035858	0.012665	-0.048676	0.068359	0.000916	-0.00061	-0.010071	-0.031128	0.01236	0.002747	0.062561	-0.099182	-0.010529	-0.002136	-0.005493	-0.17731	0.40161	-0.051575	0.011597	-0.027466	-0.50995	-0.009613	-0.10742	-0.016174	-0.19104	-0.001678	0.068817	0.43854	-0.01236	-0.012207
37.75	0.008545	0.12817	-0.085907	0.006866	-0.077972	-0.026093	-0.018921	-0.007782	-0.06485	-0.029907	0.012665	0.005341	0.080109	-0.15869	-0.002441	-0.01236	0.008698	-0.1796	0.5217	-0.015564	0.001068	-0.010376	-0.45227	0.05127	-0.41489	-0.006256	-0.027161	-0.001526	0.010376	0.30518	-0.013733	-0.010986
37.751	0.000916	0.089264	-0.075836	0.014648	-0.007324	-0.076599	-0.017548	-0.000916	-0.096283	-0.024872	0.00824	0.005035	0.069733	-0.14801	-0.004578	0.008545	0.015564	-0.18906	0.23529	0.044403	0.019073	-0.004883	-0.2507	0.12375	-0.49927	-0.00351	-0.14618	-0.002136	0.48309	0.2182	-0.019989	-0.009766
37.752	0.005798	0.065765	-0.062866	0.024719	0.018921	-0.005341	-0.042419	-0.001678	-0.095673	-0.032043	0.018463	0.005493	0.048218	-0.07782	-0.004272	0.001221	0.023956	-0.27405	0.40878	-0.011444	0.008698	-0.006561	0.023346	0.13901	-0.34317	-0.0177	-0.1741	-0.00412	0.72037	0.13214	-0.007172	-0.001831
37.753	0.00946	0.040283	0.014954	0.016632	0.002747	-0.005798	-0.074005	-0.001678	-0.10712	-0.029144	0.012817	0.005798	0.040741	-0.00824	-0.015717	0.002594	0.029449	-0.39154	-0.19241	0.072784	0.010529	-0.005493	0.12283	0.061188	-0.12817	-0.023499	-0.064697	-0.003204	0.80368	0.22736	-0.010681	-0.005951
37.754	0.008087	0.035706	-0.002899	0.003357	-0.032043	-0.040588	-0.083466	-0.003815	-0.053864	-0.018311	0.01358	0.005035	0.033722	0.00351	-0.007782	0.002289	0.024567	-0.35461	-0.23789	0.046844	0.016479	-0.028381	0.13397	0.12207	-0.019073	-0.021973	0.075073	-0.003662	0.64911	0.13443	-0.013123	-0.005493
37.755	0.003204	0.047455	-0.025177	0.015564	-0.043945	-0.034637	-0.074158	-0.005646	-0.09201	-0.023041	0.014954	-0.003204	0.03952	-0.030365	-0.002747	0.008392	0.015411	-0.2388	0.001831	-0.051575	0.011597	-0.024414	0.079956	0.12039	0.055542	-0.002899	0.14557	-0.000458	0.040588	0.010223	-0.010376	0.001526
37.756	0.001373	0.062256	0.010223	0.018005	0.010834	-0.033417	-0.081635	-0.002899	-0.1471	-0.02182	0.009766	0.005951	0.041199	-0.091705	0.001831	0.024872	0.001068	-0.25009	0.21316	-0.11383	0.019836	0.006409	-0.13062	0.04715	0.13657	-0.005188	0.24109	-0.003357	-1.1058	-0.010376	-0.009613	-0.009003
37.757	-0.009308	0.069885	0.023651	0.008087	0.071716	0.023804	-0.10208	-0.000763	-0.15854	-0.015106	0.006104	0.000763	0.036163	-0.10254	-0.001221	0.005341	-0.009155	-0.26489	0.31647	-0.09613	0.033264	0.033264	-0.11871	-0.009918	0.12314	-0.016174	0.21301	-0.004272	-0.19882	0.058289	-0.008392	-0.003662
37.758	-0.021515	0.07843	0.00824	0.019379	0.036469	0.079956	-0.093994	0.005493	-0.12222	-0.025787	0.007324	-0.000763	0.039673	-0.19852	0	0.003052	-0.010376	-0.2626	0.25146	0.067444	0.043793	0.046844	-0.054169	-0.025482	0.084076	-0.021362	0.10529	-0.002289	-0.9845	0.25803	-0.010681	0.00061
37.759	-0.028076	0.07782	-0.026245	0.016785	-0.068054	0.10605	-0.097961	0.003967	-0.074463	-0.05127	0.011139	0.007019	0.036926	-0.37018	-0.005798	-0.003204	-0.001068	-0.22797	-0.041351	0.1329	0.039673	0.06012	0.159	0.031433	0.023499	-0.019684	-0.029297	-0.001678	-0.98465	0.18662	-0.01236	-0.004272
37.76	-0.007477	0.097198	-0.030975	0.007172	-0.089111	-0.040436	-0.112	-0.002136	-0.048828	-0.053101	0.009766	0.003052	0.027618	-0.16419	0.016479	-0.005798	0.00885	-0.21683	0.16617	0.037994	0.063629	0.07843	0.24735	-0.015717	-0.016174	-0.013275	0.11246	-0.000763	-1.123	0.013275	-0.006714	-0.014648
